<svg width="500" height="489" viewBox="0 0 500 489" fill="none" xmlns="http://www.w3.org/2000/svg">
<circle cx="275.894" cy="179.346" r="164.254" fill="#F7F7F7" stroke="#231F20" stroke-width="30"/>
<path d="M20.8816 472.288C9.7237 463.161 8.07747 446.716 17.2046 435.559L143.581 281.064L183.987 314.117L57.6108 468.611C48.4837 479.769 32.0394 481.415 20.8816 472.288Z" fill="#231F20"/>
<mask id="mask0_163_170" style="mask-type:alpha" maskUnits="userSpaceOnUse" x="96" y="0" width="360" height="359">
<circle cx="275.894" cy="179.346" r="179.254" fill="#F7F7F7"/>
</mask>
<g mask="url(#mask0_163_170)">
<rect x="339.995" y="47.8698" width="306.306" height="366.953" rx="15" transform="rotate(-18.293 339.995 47.8698)" fill="#F3F3F3"/>
<rect x="361.796" y="67.3449" width="277.134" height="5.3738" transform="rotate(-18.293 361.796 67.3449)" fill="#D9D9D9"/>
<rect x="366.374" y="81.1938" width="277.134" height="3.83843" transform="rotate(-18.293 366.374 81.1938)" fill="#D9D9D9"/>
<rect x="370.47" y="93.585" width="277.134" height="3.83843" transform="rotate(-18.293 370.47 93.585)" fill="#D9D9D9"/>
<rect x="374.567" y="105.976" width="277.134" height="3.83843" transform="rotate(-18.293 374.567 105.976)" fill="#D9D9D9"/>
<rect x="378.663" y="118.367" width="277.134" height="3.83843" transform="rotate(-18.293 378.663 118.367)" fill="#D9D9D9"/>
<rect x="382.759" y="130.758" width="277.134" height="3.83843" transform="rotate(-18.293 382.759 130.758)" fill="#D9D9D9"/>
<rect x="386.856" y="143.149" width="277.134" height="3.83843" transform="rotate(-18.293 386.856 143.149)" fill="#D9D9D9"/>
<rect x="395.048" y="167.932" width="215.719" height="3.83843" transform="rotate(-18.293 395.048 167.932)" fill="#D9D9D9"/>
<rect x="399.145" y="180.323" width="215.719" height="3.83843" transform="rotate(-18.293 399.145 180.323)" fill="#D9D9D9"/>
<rect x="403.241" y="192.714" width="215.719" height="3.83843" transform="rotate(-18.293 403.241 192.714)" fill="#D9D9D9"/>
<rect x="407.337" y="205.105" width="215.719" height="3.83843" transform="rotate(-18.293 407.337 205.105)" fill="#D9D9D9"/>
<rect x="411.433" y="217.496" width="215.719" height="3.83843" transform="rotate(-18.293 411.433 217.496)" fill="#D9D9D9"/>
<rect x="415.53" y="229.887" width="215.719" height="3.83843" transform="rotate(-18.293 415.53 229.887)" fill="#D9D9D9"/>
<rect x="419.626" y="242.278" width="215.719" height="3.83843" transform="rotate(-18.293 419.626 242.278)" fill="#D9D9D9"/>
<rect x="423.722" y="254.669" width="215.719" height="3.83843" transform="rotate(-18.293 423.722 254.669)" fill="#D9D9D9"/>
<rect x="427.818" y="267.061" width="215.719" height="3.83843" transform="rotate(-18.293 427.818 267.061)" fill="#D9D9D9"/>
<rect x="431.915" y="279.452" width="215.719" height="3.83843" transform="rotate(-18.293 431.915 279.452)" fill="#D9D9D9"/>
<rect x="436.011" y="291.843" width="215.719" height="3.83843" transform="rotate(-18.293 436.011 291.843)" fill="#D9D9D9"/>
<rect x="440.107" y="304.234" width="215.719" height="3.83843" transform="rotate(-18.293 440.107 304.234)" fill="#D9D9D9"/>
<rect x="444.204" y="316.625" width="215.719" height="3.83843" transform="rotate(-18.293 444.204 316.625)" fill="#D9D9D9"/>
<rect x="448.3" y="329.016" width="215.719" height="3.83843" transform="rotate(-18.293 448.3 329.016)" fill="#D9D9D9"/>
<rect x="452.396" y="341.407" width="215.719" height="3.83843" transform="rotate(-18.293 452.396 341.407)" fill="#D9D9D9"/>
</g>
<path d="M288.177 224.933C186.765 186.857 156.637 217.915 123.705 224.102C120.873 224.634 119.262 227.896 120.669 230.41C228.698 423.484 387.337 316.032 424.465 247.505C447.281 205.393 446.406 141.963 422.361 100.074C420.304 96.4893 415.067 98.5061 415.22 102.636C417.622 167.366 374.347 257.286 288.177 224.933Z" fill="#861D1D"/>
<circle cx="275.894" cy="179.346" r="164.254" stroke="#231F20" stroke-width="30"/>
<circle cx="1.91921" cy="1.91921" r="1.91921" transform="matrix(-1 0 0 1 178.782 90.6784)" fill="#861D1D"/>
<circle cx="1.91921" cy="1.91921" r="1.91921" transform="matrix(-1 0 0 1 178.782 99.8907)" fill="#861D1D"/>
<circle cx="1.91921" cy="1.91921" r="1.91921" transform="matrix(-1 0 0 1 178.782 109.103)" fill="#861D1D"/>
<circle cx="1.91921" cy="1.91921" r="1.91921" transform="matrix(-1 0 0 1 178.782 118.315)" fill="#861D1D"/>
<circle cx="1.91921" cy="1.91921" r="1.91921" transform="matrix(-1 0 0 1 191.832 90.6784)" fill="#861D1D"/>
<circle cx="1.91921" cy="1.91921" r="1.91921" transform="matrix(-1 0 0 1 191.832 99.8907)" fill="#861D1D"/>
<circle cx="1.91921" cy="1.91921" r="1.91921" transform="matrix(-1 0 0 1 191.832 109.103)" fill="#861D1D"/>
<circle cx="1.91921" cy="1.91921" r="1.91921" transform="matrix(-1 0 0 1 191.832 118.315)" fill="#861D1D"/>
<circle cx="1.91921" cy="1.91921" r="1.91921" transform="matrix(-1 0 0 1 204.883 90.6784)" fill="#861D1D"/>
<circle cx="1.91921" cy="1.91921" r="1.91921" transform="matrix(-1 0 0 1 204.883 99.8907)" fill="#861D1D"/>
<circle cx="1.91921" cy="1.91921" r="1.91921" transform="matrix(-1 0 0 1 204.883 109.103)" fill="#861D1D"/>
<circle cx="1.91921" cy="1.91921" r="1.91921" transform="matrix(-1 0 0 1 204.883 118.315)" fill="#861D1D"/>
<circle cx="1.91921" cy="1.91921" r="1.91921" transform="matrix(-1 0 0 1 217.933 90.6784)" fill="#861D1D"/>
<circle cx="1.91921" cy="1.91921" r="1.91921" transform="matrix(-1 0 0 1 217.933 99.8907)" fill="#861D1D"/>
<circle cx="1.91921" cy="1.91921" r="1.91921" transform="matrix(-1 0 0 1 217.933 109.103)" fill="#861D1D"/>
<circle cx="1.91921" cy="1.91921" r="1.91921" transform="matrix(-1 0 0 1 217.933 118.315)" fill="#861D1D"/>
</svg>
