<svg width="905" height="543" viewBox="0 0 905 543" fill="none" xmlns="http://www.w3.org/2000/svg">
<g opacity="0.4">
<g opacity="0.3">
<rect x="28.4043" y="8.82861" width="2.30306" height="28.4043" transform="rotate(90 28.4043 8.82861)" fill="#1E1E1E"/>
<rect x="19.5757" y="28.4048" width="2.30306" height="28.4043" transform="rotate(-180 19.5757 28.4048)" fill="#1E1E1E"/>
</g>
<g opacity="0.3">
<rect x="28.4043" y="51.8193" width="2.30306" height="28.4043" transform="rotate(90 28.4043 51.8193)" fill="#1E1E1E"/>
<rect x="19.5757" y="71.395" width="2.30306" height="28.4043" transform="rotate(-180 19.5757 71.395)" fill="#1E1E1E"/>
</g>
<g opacity="0.3">
<rect x="28.4043" y="94.8096" width="2.30306" height="28.4043" transform="rotate(90 28.4043 94.8096)" fill="#1E1E1E"/>
<rect x="19.5757" y="114.386" width="2.30306" height="28.4043" transform="rotate(-180 19.5757 114.386)" fill="#1E1E1E"/>
</g>
<g opacity="0.3">
<rect x="28.4043" y="137.8" width="2.30306" height="28.4043" transform="rotate(90 28.4043 137.8)" fill="#1E1E1E"/>
<rect x="19.5757" y="157.376" width="2.30306" height="28.4043" transform="rotate(-180 19.5757 157.376)" fill="#1E1E1E"/>
</g>
<g opacity="0.3">
<rect x="28.4043" y="180.79" width="2.30306" height="28.4043" transform="rotate(90 28.4043 180.79)" fill="#1E1E1E"/>
<rect x="19.5757" y="200.366" width="2.30306" height="28.4043" transform="rotate(-180 19.5757 200.366)" fill="#1E1E1E"/>
</g>
<g opacity="0.3">
<rect x="115.921" y="8.82861" width="2.30306" height="28.4043" transform="rotate(90 115.921 8.82861)" fill="#1E1E1E"/>
<rect x="107.092" y="28.4048" width="2.30306" height="28.4043" transform="rotate(-180 107.092 28.4048)" fill="#1E1E1E"/>
</g>
<g opacity="0.3">
<rect x="115.921" y="51.8193" width="2.30306" height="28.4043" transform="rotate(90 115.921 51.8193)" fill="#1E1E1E"/>
<rect x="107.092" y="71.395" width="2.30306" height="28.4043" transform="rotate(-180 107.092 71.395)" fill="#1E1E1E"/>
</g>
<g opacity="0.3">
<rect x="115.921" y="94.8096" width="2.30306" height="28.4043" transform="rotate(90 115.921 94.8096)" fill="#1E1E1E"/>
<rect x="107.092" y="114.386" width="2.30306" height="28.4043" transform="rotate(-180 107.092 114.386)" fill="#1E1E1E"/>
</g>
<g opacity="0.3">
<rect x="115.921" y="137.8" width="2.30306" height="28.4043" transform="rotate(90 115.921 137.8)" fill="#1E1E1E"/>
<rect x="107.092" y="157.376" width="2.30306" height="28.4043" transform="rotate(-180 107.092 157.376)" fill="#1E1E1E"/>
</g>
<g opacity="0.3">
<rect x="115.921" y="180.79" width="2.30306" height="28.4043" transform="rotate(90 115.921 180.79)" fill="#1E1E1E"/>
<rect x="107.092" y="200.366" width="2.30306" height="28.4043" transform="rotate(-180 107.092 200.366)" fill="#1E1E1E"/>
</g>
<g opacity="0.3">
<rect x="72.1626" y="8.82861" width="2.30306" height="28.4043" transform="rotate(90 72.1626 8.82861)" fill="#1E1E1E"/>
<rect x="63.334" y="28.4048" width="2.30306" height="28.4043" transform="rotate(-180 63.334 28.4048)" fill="#1E1E1E"/>
</g>
<g opacity="0.3">
<rect x="72.1626" y="51.8193" width="2.30306" height="28.4043" transform="rotate(90 72.1626 51.8193)" fill="#1E1E1E"/>
<rect x="63.334" y="71.395" width="2.30306" height="28.4043" transform="rotate(-180 63.334 71.395)" fill="#1E1E1E"/>
</g>
<g opacity="0.3">
<rect x="72.1626" y="94.8096" width="2.30306" height="28.4043" transform="rotate(90 72.1626 94.8096)" fill="#1E1E1E"/>
<rect x="63.334" y="114.386" width="2.30306" height="28.4043" transform="rotate(-180 63.334 114.386)" fill="#1E1E1E"/>
</g>
<g opacity="0.3">
<rect x="72.1626" y="137.8" width="2.30306" height="28.4043" transform="rotate(90 72.1626 137.8)" fill="#1E1E1E"/>
<rect x="63.334" y="157.376" width="2.30306" height="28.4043" transform="rotate(-180 63.334 157.376)" fill="#1E1E1E"/>
</g>
<g opacity="0.3">
<rect x="72.1626" y="180.79" width="2.30306" height="28.4043" transform="rotate(90 72.1626 180.79)" fill="#1E1E1E"/>
<rect x="63.334" y="200.366" width="2.30306" height="28.4043" transform="rotate(-180 63.334 200.366)" fill="#1E1E1E"/>
</g>
<g opacity="0.3">
<rect x="159.679" y="8.82861" width="2.30306" height="28.4043" transform="rotate(90 159.679 8.82861)" fill="#1E1E1E"/>
<rect x="150.85" y="28.4048" width="2.30306" height="28.4043" transform="rotate(-180 150.85 28.4048)" fill="#1E1E1E"/>
</g>
<g opacity="0.3">
<rect x="159.679" y="51.8193" width="2.30306" height="28.4043" transform="rotate(90 159.679 51.8193)" fill="#1E1E1E"/>
<rect x="150.85" y="71.395" width="2.30306" height="28.4043" transform="rotate(-180 150.85 71.395)" fill="#1E1E1E"/>
</g>
<g opacity="0.3">
<rect x="159.679" y="94.8096" width="2.30306" height="28.4043" transform="rotate(90 159.679 94.8096)" fill="#1E1E1E"/>
<rect x="150.85" y="114.386" width="2.30306" height="28.4043" transform="rotate(-180 150.85 114.386)" fill="#1E1E1E"/>
</g>
<g opacity="0.3">
<rect x="159.679" y="137.8" width="2.30306" height="28.4043" transform="rotate(90 159.679 137.8)" fill="#1E1E1E"/>
<rect x="150.85" y="157.376" width="2.30306" height="28.4043" transform="rotate(-180 150.85 157.376)" fill="#1E1E1E"/>
</g>
<g opacity="0.3">
<rect x="159.679" y="180.79" width="2.30306" height="28.4043" transform="rotate(90 159.679 180.79)" fill="#1E1E1E"/>
<rect x="150.85" y="200.366" width="2.30306" height="28.4043" transform="rotate(-180 150.85 200.366)" fill="#1E1E1E"/>
</g>
<g opacity="0.3">
<rect x="28.4043" y="229.922" width="2.30306" height="28.4043" transform="rotate(90 28.4043 229.922)" fill="#1E1E1E"/>
<rect x="19.5757" y="249.498" width="2.30306" height="28.4043" transform="rotate(-180 19.5757 249.498)" fill="#1E1E1E"/>
</g>
<g opacity="0.3">
<rect x="28.4043" y="272.912" width="2.30306" height="28.4043" transform="rotate(90 28.4043 272.912)" fill="#1E1E1E"/>
<rect x="19.5757" y="292.488" width="2.30306" height="28.4043" transform="rotate(-180 19.5757 292.488)" fill="#1E1E1E"/>
</g>
<g opacity="0.3">
<rect x="28.4043" y="315.902" width="2.30306" height="28.4043" transform="rotate(90 28.4043 315.902)" fill="#1E1E1E"/>
<rect x="19.5757" y="335.479" width="2.30306" height="28.4043" transform="rotate(-180 19.5757 335.479)" fill="#1E1E1E"/>
</g>
<g opacity="0.3">
<rect x="28.4043" y="358.893" width="2.30306" height="28.4043" transform="rotate(90 28.4043 358.893)" fill="#1E1E1E"/>
<rect x="19.5757" y="378.469" width="2.30306" height="28.4043" transform="rotate(-180 19.5757 378.469)" fill="#1E1E1E"/>
</g>
<g opacity="0.3">
<rect x="28.4043" y="401.883" width="2.30306" height="28.4043" transform="rotate(90 28.4043 401.883)" fill="#1E1E1E"/>
<rect x="19.5757" y="421.459" width="2.30306" height="28.4043" transform="rotate(-180 19.5757 421.459)" fill="#1E1E1E"/>
</g>
<g opacity="0.3">
<rect x="115.921" y="229.922" width="2.30306" height="28.4043" transform="rotate(90 115.921 229.922)" fill="#1E1E1E"/>
<rect x="107.092" y="249.498" width="2.30306" height="28.4043" transform="rotate(-180 107.092 249.498)" fill="#1E1E1E"/>
</g>
<g opacity="0.3">
<rect x="115.921" y="272.912" width="2.30306" height="28.4043" transform="rotate(90 115.921 272.912)" fill="#1E1E1E"/>
<rect x="107.092" y="292.488" width="2.30306" height="28.4043" transform="rotate(-180 107.092 292.488)" fill="#1E1E1E"/>
</g>
<g opacity="0.3">
<rect x="115.921" y="315.902" width="2.30306" height="28.4043" transform="rotate(90 115.921 315.902)" fill="#1E1E1E"/>
<rect x="107.092" y="335.479" width="2.30306" height="28.4043" transform="rotate(-180 107.092 335.479)" fill="#1E1E1E"/>
</g>
<g opacity="0.3">
<rect x="115.921" y="358.893" width="2.30306" height="28.4043" transform="rotate(90 115.921 358.893)" fill="#1E1E1E"/>
<rect x="107.092" y="378.469" width="2.30306" height="28.4043" transform="rotate(-180 107.092 378.469)" fill="#1E1E1E"/>
</g>
<g opacity="0.3">
<rect x="115.921" y="401.883" width="2.30306" height="28.4043" transform="rotate(90 115.921 401.883)" fill="#1E1E1E"/>
<rect x="107.092" y="421.459" width="2.30306" height="28.4043" transform="rotate(-180 107.092 421.459)" fill="#1E1E1E"/>
</g>
<g opacity="0.3">
<rect x="72.1626" y="229.922" width="2.30306" height="28.4043" transform="rotate(90 72.1626 229.922)" fill="#1E1E1E"/>
<rect x="63.334" y="249.498" width="2.30306" height="28.4043" transform="rotate(-180 63.334 249.498)" fill="#1E1E1E"/>
</g>
<g opacity="0.3">
<rect x="72.1626" y="272.912" width="2.30306" height="28.4043" transform="rotate(90 72.1626 272.912)" fill="#1E1E1E"/>
<rect x="63.334" y="292.488" width="2.30306" height="28.4043" transform="rotate(-180 63.334 292.488)" fill="#1E1E1E"/>
</g>
<g opacity="0.3">
<rect x="72.1626" y="315.902" width="2.30306" height="28.4043" transform="rotate(90 72.1626 315.902)" fill="#1E1E1E"/>
<rect x="63.334" y="335.479" width="2.30306" height="28.4043" transform="rotate(-180 63.334 335.479)" fill="#1E1E1E"/>
</g>
<g opacity="0.3">
<rect x="72.1626" y="358.893" width="2.30306" height="28.4043" transform="rotate(90 72.1626 358.893)" fill="#1E1E1E"/>
<rect x="63.334" y="378.469" width="2.30306" height="28.4043" transform="rotate(-180 63.334 378.469)" fill="#1E1E1E"/>
</g>
<g opacity="0.3">
<rect x="72.1626" y="401.883" width="2.30306" height="28.4043" transform="rotate(90 72.1626 401.883)" fill="#1E1E1E"/>
<rect x="63.334" y="421.459" width="2.30306" height="28.4043" transform="rotate(-180 63.334 421.459)" fill="#1E1E1E"/>
</g>
<g opacity="0.3">
<rect x="159.679" y="229.922" width="2.30306" height="28.4043" transform="rotate(90 159.679 229.922)" fill="#1E1E1E"/>
<rect x="150.85" y="249.498" width="2.30306" height="28.4043" transform="rotate(-180 150.85 249.498)" fill="#1E1E1E"/>
</g>
<g opacity="0.3">
<rect x="159.679" y="272.912" width="2.30306" height="28.4043" transform="rotate(90 159.679 272.912)" fill="#1E1E1E"/>
<rect x="150.85" y="292.488" width="2.30306" height="28.4043" transform="rotate(-180 150.85 292.488)" fill="#1E1E1E"/>
</g>
<g opacity="0.3">
<rect x="159.679" y="315.902" width="2.30306" height="28.4043" transform="rotate(90 159.679 315.902)" fill="#1E1E1E"/>
<rect x="150.85" y="335.479" width="2.30306" height="28.4043" transform="rotate(-180 150.85 335.479)" fill="#1E1E1E"/>
</g>
<g opacity="0.3">
<rect x="159.679" y="358.893" width="2.30306" height="28.4043" transform="rotate(90 159.679 358.893)" fill="#1E1E1E"/>
<rect x="150.85" y="378.469" width="2.30306" height="28.4043" transform="rotate(-180 150.85 378.469)" fill="#1E1E1E"/>
</g>
<g opacity="0.3">
<rect x="159.679" y="401.883" width="2.30306" height="28.4043" transform="rotate(90 159.679 401.883)" fill="#1E1E1E"/>
<rect x="150.85" y="421.459" width="2.30306" height="28.4043" transform="rotate(-180 150.85 421.459)" fill="#1E1E1E"/>
</g>
</g>
<rect x="498.995" y="116.87" width="306.306" height="366.953" rx="15" transform="rotate(-18.293 498.995 116.87)" fill="#F0F0F0"/>
<rect x="520.796" y="136.345" width="277.134" height="5.3738" transform="rotate(-18.293 520.796 136.345)" fill="#D9D9D9"/>
<rect x="525.374" y="150.194" width="277.134" height="3.83843" transform="rotate(-18.293 525.374 150.194)" fill="#D9D9D9"/>
<rect x="529.47" y="162.585" width="277.134" height="3.83843" transform="rotate(-18.293 529.47 162.585)" fill="#D9D9D9"/>
<rect x="533.566" y="174.976" width="277.134" height="3.83843" transform="rotate(-18.293 533.566 174.976)" fill="#D9D9D9"/>
<rect x="537.663" y="187.367" width="277.134" height="3.83843" transform="rotate(-18.293 537.663 187.367)" fill="#D9D9D9"/>
<rect x="541.759" y="199.758" width="277.134" height="3.83843" transform="rotate(-18.293 541.759 199.758)" fill="#D9D9D9"/>
<rect x="545.855" y="212.149" width="277.134" height="3.83843" transform="rotate(-18.293 545.855 212.149)" fill="#D9D9D9"/>
<rect x="554.048" y="236.932" width="215.719" height="3.83843" transform="rotate(-18.293 554.048 236.932)" fill="#D9D9D9"/>
<rect x="558.145" y="249.323" width="215.719" height="3.83843" transform="rotate(-18.293 558.145 249.323)" fill="#D9D9D9"/>
<rect x="562.241" y="261.714" width="215.719" height="3.83843" transform="rotate(-18.293 562.241 261.714)" fill="#D9D9D9"/>
<rect x="566.337" y="274.105" width="215.719" height="3.83843" transform="rotate(-18.293 566.337 274.105)" fill="#D9D9D9"/>
<rect x="570.433" y="286.496" width="215.719" height="3.83843" transform="rotate(-18.293 570.433 286.496)" fill="#D9D9D9"/>
<rect x="574.529" y="298.887" width="215.719" height="3.83843" transform="rotate(-18.293 574.529 298.887)" fill="#D9D9D9"/>
<rect x="578.626" y="311.278" width="215.719" height="3.83843" transform="rotate(-18.293 578.626 311.278)" fill="#D9D9D9"/>
<rect x="582.722" y="323.669" width="215.719" height="3.83843" transform="rotate(-18.293 582.722 323.669)" fill="#D9D9D9"/>
<rect x="586.818" y="336.061" width="215.719" height="3.83843" transform="rotate(-18.293 586.818 336.061)" fill="#D9D9D9"/>
<rect x="590.915" y="348.452" width="215.719" height="3.83843" transform="rotate(-18.293 590.915 348.452)" fill="#D9D9D9"/>
<rect x="595.011" y="360.843" width="215.719" height="3.83843" transform="rotate(-18.293 595.011 360.843)" fill="#D9D9D9"/>
<rect x="599.107" y="373.234" width="215.719" height="3.83843" transform="rotate(-18.293 599.107 373.234)" fill="#D9D9D9"/>
<rect x="603.204" y="385.625" width="215.719" height="3.83843" transform="rotate(-18.293 603.204 385.625)" fill="#D9D9D9"/>
<rect x="607.3" y="398.017" width="215.719" height="3.83843" transform="rotate(-18.293 607.3 398.017)" fill="#D9D9D9"/>
<rect x="611.396" y="410.407" width="215.719" height="3.83843" transform="rotate(-18.293 611.396 410.407)" fill="#D9D9D9"/>
<rect x="615.493" y="422.799" width="215.719" height="3.83843" transform="rotate(-18.293 615.493 422.799)" fill="#D9D9D9"/>
<rect x="619.589" y="435.19" width="215.719" height="3.83843" transform="rotate(-18.293 619.589 435.19)" fill="#D9D9D9"/>
<circle cx="406.215" cy="233.254" r="164.254" fill="#F7F7F7" stroke="#231F20" stroke-width="30"/>
<path d="M151.203 526.196C140.045 517.069 138.399 500.625 147.526 489.467L273.902 334.973L314.309 368.025L187.932 522.519C178.805 533.677 162.361 535.323 151.203 526.196Z" fill="#231F20"/>
<mask id="mask0_141_3" style="mask-type:alpha" maskUnits="userSpaceOnUse" x="226" y="54" width="360" height="359">
<circle cx="406.215" cy="233.254" r="179.254" fill="#F7F7F7"/>
</mask>
<g mask="url(#mask0_141_3)">
<rect x="470.316" y="101.778" width="306.306" height="366.953" rx="15" transform="rotate(-18.293 470.316 101.778)" fill="#F3F3F3"/>
<rect x="492.117" y="121.253" width="277.134" height="5.3738" transform="rotate(-18.293 492.117 121.253)" fill="#D9D9D9"/>
<rect x="496.695" y="135.102" width="277.134" height="3.83843" transform="rotate(-18.293 496.695 135.102)" fill="#D9D9D9"/>
<rect x="500.792" y="147.493" width="277.134" height="3.83843" transform="rotate(-18.293 500.792 147.493)" fill="#D9D9D9"/>
<rect x="504.888" y="159.884" width="277.134" height="3.83843" transform="rotate(-18.293 504.888 159.884)" fill="#D9D9D9"/>
<rect x="508.984" y="172.275" width="277.134" height="3.83843" transform="rotate(-18.293 508.984 172.275)" fill="#D9D9D9"/>
<rect x="513.08" y="184.667" width="277.134" height="3.83843" transform="rotate(-18.293 513.08 184.667)" fill="#D9D9D9"/>
<rect x="517.177" y="197.058" width="277.134" height="3.83843" transform="rotate(-18.293 517.177 197.058)" fill="#D9D9D9"/>
<rect x="525.369" y="221.84" width="215.719" height="3.83843" transform="rotate(-18.293 525.369 221.84)" fill="#D9D9D9"/>
<rect x="529.466" y="234.231" width="215.719" height="3.83843" transform="rotate(-18.293 529.466 234.231)" fill="#D9D9D9"/>
<rect x="533.562" y="246.622" width="215.719" height="3.83843" transform="rotate(-18.293 533.562 246.622)" fill="#D9D9D9"/>
<rect x="537.658" y="259.013" width="215.719" height="3.83843" transform="rotate(-18.293 537.658 259.013)" fill="#D9D9D9"/>
<rect x="541.754" y="271.404" width="215.719" height="3.83843" transform="rotate(-18.293 541.754 271.404)" fill="#D9D9D9"/>
<rect x="545.851" y="283.795" width="215.719" height="3.83843" transform="rotate(-18.293 545.851 283.795)" fill="#D9D9D9"/>
<rect x="549.947" y="296.187" width="215.719" height="3.83843" transform="rotate(-18.293 549.947 296.187)" fill="#D9D9D9"/>
<rect x="554.043" y="308.578" width="215.719" height="3.83843" transform="rotate(-18.293 554.043 308.578)" fill="#D9D9D9"/>
<rect x="558.14" y="320.969" width="215.719" height="3.83843" transform="rotate(-18.293 558.14 320.969)" fill="#D9D9D9"/>
<rect x="562.236" y="333.36" width="215.719" height="3.83843" transform="rotate(-18.293 562.236 333.36)" fill="#D9D9D9"/>
<rect x="566.333" y="345.751" width="215.719" height="3.83843" transform="rotate(-18.293 566.333 345.751)" fill="#D9D9D9"/>
<rect x="570.428" y="358.143" width="215.719" height="3.83843" transform="rotate(-18.293 570.428 358.143)" fill="#D9D9D9"/>
<rect x="574.525" y="370.534" width="215.719" height="3.83843" transform="rotate(-18.293 574.525 370.534)" fill="#D9D9D9"/>
<rect x="578.622" y="382.925" width="215.719" height="3.83843" transform="rotate(-18.293 578.622 382.925)" fill="#D9D9D9"/>
<rect x="582.717" y="395.315" width="215.719" height="3.83843" transform="rotate(-18.293 582.717 395.315)" fill="#D9D9D9"/>
</g>
<path d="M418.498 278.841C317.087 240.765 286.959 271.824 254.026 278.011C251.194 278.543 249.584 281.804 250.991 284.319C359.019 477.393 517.659 369.941 554.786 301.414C577.602 259.302 576.728 195.871 552.683 153.982C550.625 150.398 545.388 152.415 545.541 156.545C547.943 221.274 504.668 311.195 418.498 278.841Z" fill="#861D1D"/>
<circle cx="406.215" cy="233.254" r="164.254" stroke="#231F20" stroke-width="30"/>
<circle cx="1.91921" cy="1.91921" r="1.91921" transform="matrix(-1 0 0 1 309.103 144.587)" fill="#861D1D"/>
<circle cx="1.91921" cy="1.91921" r="1.91921" transform="matrix(-1 0 0 1 309.103 153.799)" fill="#861D1D"/>
<circle cx="1.91921" cy="1.91921" r="1.91921" transform="matrix(-1 0 0 1 309.103 163.011)" fill="#861D1D"/>
<circle cx="1.91921" cy="1.91921" r="1.91921" transform="matrix(-1 0 0 1 309.103 172.224)" fill="#861D1D"/>
<circle cx="1.91921" cy="1.91921" r="1.91921" transform="matrix(-1 0 0 1 322.153 144.587)" fill="#861D1D"/>
<circle cx="1.91921" cy="1.91921" r="1.91921" transform="matrix(-1 0 0 1 322.153 153.799)" fill="#861D1D"/>
<circle cx="1.91921" cy="1.91921" r="1.91921" transform="matrix(-1 0 0 1 322.153 163.011)" fill="#861D1D"/>
<circle cx="1.91921" cy="1.91921" r="1.91921" transform="matrix(-1 0 0 1 322.153 172.224)" fill="#861D1D"/>
<circle cx="1.91921" cy="1.91921" r="1.91921" transform="matrix(-1 0 0 1 335.204 144.587)" fill="#861D1D"/>
<circle cx="1.91921" cy="1.91921" r="1.91921" transform="matrix(-1 0 0 1 335.204 153.799)" fill="#861D1D"/>
<circle cx="1.91921" cy="1.91921" r="1.91921" transform="matrix(-1 0 0 1 335.204 163.011)" fill="#861D1D"/>
<circle cx="1.91921" cy="1.91921" r="1.91921" transform="matrix(-1 0 0 1 335.204 172.224)" fill="#861D1D"/>
<circle cx="1.91921" cy="1.91921" r="1.91921" transform="matrix(-1 0 0 1 348.254 144.587)" fill="#861D1D"/>
<circle cx="1.91921" cy="1.91921" r="1.91921" transform="matrix(-1 0 0 1 348.254 153.799)" fill="#861D1D"/>
<circle cx="1.91921" cy="1.91921" r="1.91921" transform="matrix(-1 0 0 1 348.254 163.011)" fill="#861D1D"/>
<circle cx="1.91921" cy="1.91921" r="1.91921" transform="matrix(-1 0 0 1 348.254 172.224)" fill="#861D1D"/>
</svg>

