<svg width="995" height="978" viewBox="0 0 995 978" fill="none" xmlns="http://www.w3.org/2000/svg">
<g opacity="0.78" filter="url(#filter0_f_163_238)">
<ellipse cx="491.518" cy="488.995" rx="356.066" ry="347.88" transform="rotate(34.8618 491.518 488.995)" fill="url(#paint0_linear_163_238)" fill-opacity="0.5"/>
</g>
<g opacity="0.4">
<g opacity="0.3">
<rect x="118.404" y="198.828" width="2.30306" height="28.4043" transform="rotate(90 118.404 198.828)" fill="#1E1E1E"/>
<rect x="109.576" y="218.404" width="2.30306" height="28.4043" transform="rotate(-180 109.576 218.404)" fill="#1E1E1E"/>
</g>
<g opacity="0.3">
<rect x="118.404" y="241.819" width="2.30306" height="28.4043" transform="rotate(90 118.404 241.819)" fill="#1E1E1E"/>
<rect x="109.576" y="261.395" width="2.30306" height="28.4043" transform="rotate(-180 109.576 261.395)" fill="#1E1E1E"/>
</g>
<g opacity="0.3">
<rect x="118.404" y="284.809" width="2.30306" height="28.4043" transform="rotate(90 118.404 284.809)" fill="#1E1E1E"/>
<rect x="109.576" y="304.385" width="2.30306" height="28.4043" transform="rotate(-180 109.576 304.385)" fill="#1E1E1E"/>
</g>
<g opacity="0.3">
<rect x="118.404" y="327.799" width="2.30306" height="28.4043" transform="rotate(90 118.404 327.799)" fill="#1E1E1E"/>
<rect x="109.576" y="347.375" width="2.30306" height="28.4043" transform="rotate(-180 109.576 347.375)" fill="#1E1E1E"/>
</g>
<g opacity="0.3">
<rect x="118.404" y="370.79" width="2.30306" height="28.4043" transform="rotate(90 118.404 370.79)" fill="#1E1E1E"/>
<rect x="109.576" y="390.366" width="2.30306" height="28.4043" transform="rotate(-180 109.576 390.366)" fill="#1E1E1E"/>
</g>
<g opacity="0.3">
<rect x="205.921" y="198.828" width="2.30306" height="28.4043" transform="rotate(90 205.921 198.828)" fill="#1E1E1E"/>
<rect x="197.092" y="218.404" width="2.30306" height="28.4043" transform="rotate(-180 197.092 218.404)" fill="#1E1E1E"/>
</g>
<g opacity="0.3">
<rect x="205.921" y="241.819" width="2.30306" height="28.4043" transform="rotate(90 205.921 241.819)" fill="#1E1E1E"/>
<rect x="197.092" y="261.395" width="2.30306" height="28.4043" transform="rotate(-180 197.092 261.395)" fill="#1E1E1E"/>
</g>
<g opacity="0.3">
<rect x="205.921" y="284.809" width="2.30306" height="28.4043" transform="rotate(90 205.921 284.809)" fill="#1E1E1E"/>
<rect x="197.092" y="304.385" width="2.30306" height="28.4043" transform="rotate(-180 197.092 304.385)" fill="#1E1E1E"/>
</g>
<g opacity="0.3">
<rect x="205.921" y="327.799" width="2.30306" height="28.4043" transform="rotate(90 205.921 327.799)" fill="#1E1E1E"/>
<rect x="197.092" y="347.375" width="2.30306" height="28.4043" transform="rotate(-180 197.092 347.375)" fill="#1E1E1E"/>
</g>
<g opacity="0.3">
<rect x="205.921" y="370.79" width="2.30306" height="28.4043" transform="rotate(90 205.921 370.79)" fill="#1E1E1E"/>
<rect x="197.092" y="390.366" width="2.30306" height="28.4043" transform="rotate(-180 197.092 390.366)" fill="#1E1E1E"/>
</g>
<g opacity="0.3">
<rect x="162.163" y="198.828" width="2.30306" height="28.4043" transform="rotate(90 162.163 198.828)" fill="#1E1E1E"/>
<rect x="153.334" y="218.404" width="2.30306" height="28.4043" transform="rotate(-180 153.334 218.404)" fill="#1E1E1E"/>
</g>
<g opacity="0.3">
<rect x="162.163" y="241.819" width="2.30306" height="28.4043" transform="rotate(90 162.163 241.819)" fill="#1E1E1E"/>
<rect x="153.334" y="261.395" width="2.30306" height="28.4043" transform="rotate(-180 153.334 261.395)" fill="#1E1E1E"/>
</g>
<g opacity="0.3">
<rect x="162.163" y="284.809" width="2.30306" height="28.4043" transform="rotate(90 162.163 284.809)" fill="#1E1E1E"/>
<rect x="153.334" y="304.385" width="2.30306" height="28.4043" transform="rotate(-180 153.334 304.385)" fill="#1E1E1E"/>
</g>
<g opacity="0.3">
<rect x="162.163" y="327.799" width="2.30306" height="28.4043" transform="rotate(90 162.163 327.799)" fill="#1E1E1E"/>
<rect x="153.334" y="347.375" width="2.30306" height="28.4043" transform="rotate(-180 153.334 347.375)" fill="#1E1E1E"/>
</g>
<g opacity="0.3">
<rect x="162.163" y="370.79" width="2.30306" height="28.4043" transform="rotate(90 162.163 370.79)" fill="#1E1E1E"/>
<rect x="153.334" y="390.366" width="2.30306" height="28.4043" transform="rotate(-180 153.334 390.366)" fill="#1E1E1E"/>
</g>
<g opacity="0.3">
<rect x="249.678" y="198.828" width="2.30306" height="28.4043" transform="rotate(90 249.678 198.828)" fill="#1E1E1E"/>
<rect x="240.85" y="218.404" width="2.30306" height="28.4043" transform="rotate(-180 240.85 218.404)" fill="#1E1E1E"/>
</g>
<g opacity="0.3">
<rect x="249.678" y="241.819" width="2.30306" height="28.4043" transform="rotate(90 249.678 241.819)" fill="#1E1E1E"/>
<rect x="240.85" y="261.395" width="2.30306" height="28.4043" transform="rotate(-180 240.85 261.395)" fill="#1E1E1E"/>
</g>
<g opacity="0.3">
<rect x="249.678" y="284.809" width="2.30306" height="28.4043" transform="rotate(90 249.678 284.809)" fill="#1E1E1E"/>
<rect x="240.85" y="304.385" width="2.30306" height="28.4043" transform="rotate(-180 240.85 304.385)" fill="#1E1E1E"/>
</g>
<g opacity="0.3">
<rect x="249.678" y="327.799" width="2.30306" height="28.4043" transform="rotate(90 249.678 327.799)" fill="#1E1E1E"/>
<rect x="240.85" y="347.375" width="2.30306" height="28.4043" transform="rotate(-180 240.85 347.375)" fill="#1E1E1E"/>
</g>
<g opacity="0.3">
<rect x="249.678" y="370.79" width="2.30306" height="28.4043" transform="rotate(90 249.678 370.79)" fill="#1E1E1E"/>
<rect x="240.85" y="390.366" width="2.30306" height="28.4043" transform="rotate(-180 240.85 390.366)" fill="#1E1E1E"/>
</g>
<g opacity="0.3">
<rect x="118.404" y="419.922" width="2.30306" height="28.4043" transform="rotate(90 118.404 419.922)" fill="#1E1E1E"/>
<rect x="109.576" y="439.498" width="2.30306" height="28.4043" transform="rotate(-180 109.576 439.498)" fill="#1E1E1E"/>
</g>
<g opacity="0.3">
<rect x="118.404" y="462.912" width="2.30306" height="28.4043" transform="rotate(90 118.404 462.912)" fill="#1E1E1E"/>
<rect x="109.576" y="482.488" width="2.30306" height="28.4043" transform="rotate(-180 109.576 482.488)" fill="#1E1E1E"/>
</g>
<g opacity="0.3">
<rect x="118.404" y="505.902" width="2.30306" height="28.4043" transform="rotate(90 118.404 505.902)" fill="#1E1E1E"/>
<rect x="109.576" y="525.478" width="2.30306" height="28.4043" transform="rotate(-180 109.576 525.478)" fill="#1E1E1E"/>
</g>
<g opacity="0.3">
<rect x="118.404" y="548.893" width="2.30306" height="28.4043" transform="rotate(90 118.404 548.893)" fill="#1E1E1E"/>
<rect x="109.576" y="568.469" width="2.30306" height="28.4043" transform="rotate(-180 109.576 568.469)" fill="#1E1E1E"/>
</g>
<g opacity="0.3">
<rect x="118.404" y="591.883" width="2.30306" height="28.4043" transform="rotate(90 118.404 591.883)" fill="#1E1E1E"/>
<rect x="109.576" y="611.459" width="2.30306" height="28.4043" transform="rotate(-180 109.576 611.459)" fill="#1E1E1E"/>
</g>
<g opacity="0.3">
<rect x="205.921" y="419.922" width="2.30306" height="28.4043" transform="rotate(90 205.921 419.922)" fill="#1E1E1E"/>
<rect x="197.092" y="439.498" width="2.30306" height="28.4043" transform="rotate(-180 197.092 439.498)" fill="#1E1E1E"/>
</g>
<g opacity="0.3">
<rect x="205.921" y="462.912" width="2.30306" height="28.4043" transform="rotate(90 205.921 462.912)" fill="#1E1E1E"/>
<rect x="197.092" y="482.488" width="2.30306" height="28.4043" transform="rotate(-180 197.092 482.488)" fill="#1E1E1E"/>
</g>
<g opacity="0.3">
<rect x="205.921" y="505.902" width="2.30306" height="28.4043" transform="rotate(90 205.921 505.902)" fill="#1E1E1E"/>
<rect x="197.092" y="525.478" width="2.30306" height="28.4043" transform="rotate(-180 197.092 525.478)" fill="#1E1E1E"/>
</g>
<g opacity="0.3">
<rect x="205.921" y="548.893" width="2.30306" height="28.4043" transform="rotate(90 205.921 548.893)" fill="#1E1E1E"/>
<rect x="197.092" y="568.469" width="2.30306" height="28.4043" transform="rotate(-180 197.092 568.469)" fill="#1E1E1E"/>
</g>
<g opacity="0.3">
<rect x="205.921" y="591.883" width="2.30306" height="28.4043" transform="rotate(90 205.921 591.883)" fill="#1E1E1E"/>
<rect x="197.092" y="611.459" width="2.30306" height="28.4043" transform="rotate(-180 197.092 611.459)" fill="#1E1E1E"/>
</g>
<g opacity="0.3">
<rect x="162.163" y="419.922" width="2.30306" height="28.4043" transform="rotate(90 162.163 419.922)" fill="#1E1E1E"/>
<rect x="153.334" y="439.498" width="2.30306" height="28.4043" transform="rotate(-180 153.334 439.498)" fill="#1E1E1E"/>
</g>
<g opacity="0.3">
<rect x="162.163" y="462.912" width="2.30306" height="28.4043" transform="rotate(90 162.163 462.912)" fill="#1E1E1E"/>
<rect x="153.334" y="482.488" width="2.30306" height="28.4043" transform="rotate(-180 153.334 482.488)" fill="#1E1E1E"/>
</g>
<g opacity="0.3">
<rect x="162.163" y="505.902" width="2.30306" height="28.4043" transform="rotate(90 162.163 505.902)" fill="#1E1E1E"/>
<rect x="153.334" y="525.478" width="2.30306" height="28.4043" transform="rotate(-180 153.334 525.478)" fill="#1E1E1E"/>
</g>
<g opacity="0.3">
<rect x="162.163" y="548.893" width="2.30306" height="28.4043" transform="rotate(90 162.163 548.893)" fill="#1E1E1E"/>
<rect x="153.334" y="568.469" width="2.30306" height="28.4043" transform="rotate(-180 153.334 568.469)" fill="#1E1E1E"/>
</g>
<g opacity="0.3">
<rect x="162.163" y="591.883" width="2.30306" height="28.4043" transform="rotate(90 162.163 591.883)" fill="#1E1E1E"/>
<rect x="153.334" y="611.459" width="2.30306" height="28.4043" transform="rotate(-180 153.334 611.459)" fill="#1E1E1E"/>
</g>
<g opacity="0.3">
<rect x="249.678" y="419.922" width="2.30306" height="28.4043" transform="rotate(90 249.678 419.922)" fill="#1E1E1E"/>
<rect x="240.85" y="439.498" width="2.30306" height="28.4043" transform="rotate(-180 240.85 439.498)" fill="#1E1E1E"/>
</g>
<g opacity="0.3">
<rect x="249.678" y="462.912" width="2.30306" height="28.4043" transform="rotate(90 249.678 462.912)" fill="#1E1E1E"/>
<rect x="240.85" y="482.488" width="2.30306" height="28.4043" transform="rotate(-180 240.85 482.488)" fill="#1E1E1E"/>
</g>
<g opacity="0.3">
<rect x="249.678" y="505.902" width="2.30306" height="28.4043" transform="rotate(90 249.678 505.902)" fill="#1E1E1E"/>
<rect x="240.85" y="525.478" width="2.30306" height="28.4043" transform="rotate(-180 240.85 525.478)" fill="#1E1E1E"/>
</g>
<g opacity="0.3">
<rect x="249.678" y="548.893" width="2.30306" height="28.4043" transform="rotate(90 249.678 548.893)" fill="#1E1E1E"/>
<rect x="240.85" y="568.469" width="2.30306" height="28.4043" transform="rotate(-180 240.85 568.469)" fill="#1E1E1E"/>
</g>
<g opacity="0.3">
<rect x="249.678" y="591.883" width="2.30306" height="28.4043" transform="rotate(90 249.678 591.883)" fill="#1E1E1E"/>
<rect x="240.85" y="611.459" width="2.30306" height="28.4043" transform="rotate(-180 240.85 611.459)" fill="#1E1E1E"/>
</g>
</g>
<rect x="588.995" y="306.87" width="306.306" height="366.953" rx="15" transform="rotate(-18.293 588.995 306.87)" fill="#F0F0F0"/>
<rect x="610.796" y="326.345" width="277.134" height="5.3738" transform="rotate(-18.293 610.796 326.345)" fill="#D9D9D9"/>
<rect x="615.374" y="340.194" width="277.134" height="3.83843" transform="rotate(-18.293 615.374 340.194)" fill="#D9D9D9"/>
<rect x="619.47" y="352.585" width="277.134" height="3.83843" transform="rotate(-18.293 619.47 352.585)" fill="#D9D9D9"/>
<rect x="623.567" y="364.976" width="277.134" height="3.83843" transform="rotate(-18.293 623.567 364.976)" fill="#D9D9D9"/>
<rect x="627.663" y="377.367" width="277.134" height="3.83843" transform="rotate(-18.293 627.663 377.367)" fill="#D9D9D9"/>
<rect x="631.759" y="389.758" width="277.134" height="3.83843" transform="rotate(-18.293 631.759 389.758)" fill="#D9D9D9"/>
<rect x="635.856" y="402.149" width="277.134" height="3.83843" transform="rotate(-18.293 635.856 402.149)" fill="#D9D9D9"/>
<rect x="644.048" y="426.932" width="215.719" height="3.83843" transform="rotate(-18.293 644.048 426.932)" fill="#D9D9D9"/>
<rect x="648.145" y="439.323" width="215.719" height="3.83843" transform="rotate(-18.293 648.145 439.323)" fill="#D9D9D9"/>
<rect x="652.241" y="451.714" width="215.719" height="3.83843" transform="rotate(-18.293 652.241 451.714)" fill="#D9D9D9"/>
<rect x="656.337" y="464.105" width="215.719" height="3.83843" transform="rotate(-18.293 656.337 464.105)" fill="#D9D9D9"/>
<rect x="660.433" y="476.496" width="215.719" height="3.83843" transform="rotate(-18.293 660.433 476.496)" fill="#D9D9D9"/>
<rect x="664.53" y="488.887" width="215.719" height="3.83843" transform="rotate(-18.293 664.53 488.887)" fill="#D9D9D9"/>
<rect x="668.626" y="501.278" width="215.719" height="3.83843" transform="rotate(-18.293 668.626 501.278)" fill="#D9D9D9"/>
<rect x="672.722" y="513.669" width="215.719" height="3.83843" transform="rotate(-18.293 672.722 513.669)" fill="#D9D9D9"/>
<rect x="676.818" y="526.061" width="215.719" height="3.83843" transform="rotate(-18.293 676.818 526.061)" fill="#D9D9D9"/>
<rect x="680.915" y="538.452" width="215.719" height="3.83843" transform="rotate(-18.293 680.915 538.452)" fill="#D9D9D9"/>
<rect x="685.011" y="550.843" width="215.719" height="3.83843" transform="rotate(-18.293 685.011 550.843)" fill="#D9D9D9"/>
<rect x="689.107" y="563.234" width="215.719" height="3.83843" transform="rotate(-18.293 689.107 563.234)" fill="#D9D9D9"/>
<rect x="693.204" y="575.625" width="215.719" height="3.83843" transform="rotate(-18.293 693.204 575.625)" fill="#D9D9D9"/>
<rect x="697.3" y="588.016" width="215.719" height="3.83843" transform="rotate(-18.293 697.3 588.016)" fill="#D9D9D9"/>
<rect x="701.396" y="600.407" width="215.719" height="3.83843" transform="rotate(-18.293 701.396 600.407)" fill="#D9D9D9"/>
<rect x="705.493" y="612.798" width="215.719" height="3.83843" transform="rotate(-18.293 705.493 612.798)" fill="#D9D9D9"/>
<rect x="709.589" y="625.189" width="215.719" height="3.83843" transform="rotate(-18.293 709.589 625.189)" fill="#D9D9D9"/>
<circle cx="524.894" cy="438.346" r="164.254" fill="#F7F7F7" stroke="#231F20" stroke-width="30"/>
<path d="M269.882 731.288C258.724 722.161 257.077 705.716 266.205 694.559L392.581 540.064L432.987 573.117L306.611 727.611C297.484 738.769 281.039 740.415 269.882 731.288V731.288Z" fill="#231F20"/>
<mask id="mask0_163_238" style="mask-type:alpha" maskUnits="userSpaceOnUse" x="345" y="259" width="360" height="359">
<circle cx="524.894" cy="438.346" r="179.254" fill="#F7F7F7"/>
</mask>
<g mask="url(#mask0_163_238)">
<rect x="588.995" y="306.87" width="306.306" height="366.953" rx="15" transform="rotate(-18.293 588.995 306.87)" fill="#F3F3F3"/>
<rect x="610.796" y="326.345" width="277.134" height="5.3738" transform="rotate(-18.293 610.796 326.345)" fill="#D9D9D9"/>
<rect x="615.374" y="340.194" width="277.134" height="3.83843" transform="rotate(-18.293 615.374 340.194)" fill="#D9D9D9"/>
<rect x="619.47" y="352.585" width="277.134" height="3.83843" transform="rotate(-18.293 619.47 352.585)" fill="#D9D9D9"/>
<rect x="623.567" y="364.976" width="277.134" height="3.83843" transform="rotate(-18.293 623.567 364.976)" fill="#D9D9D9"/>
<rect x="627.663" y="377.367" width="277.134" height="3.83843" transform="rotate(-18.293 627.663 377.367)" fill="#D9D9D9"/>
<rect x="631.759" y="389.758" width="277.134" height="3.83843" transform="rotate(-18.293 631.759 389.758)" fill="#D9D9D9"/>
<rect x="635.856" y="402.149" width="277.134" height="3.83843" transform="rotate(-18.293 635.856 402.149)" fill="#D9D9D9"/>
<rect x="644.048" y="426.932" width="215.719" height="3.83843" transform="rotate(-18.293 644.048 426.932)" fill="#D9D9D9"/>
<rect x="648.145" y="439.323" width="215.719" height="3.83843" transform="rotate(-18.293 648.145 439.323)" fill="#D9D9D9"/>
<rect x="652.241" y="451.714" width="215.719" height="3.83843" transform="rotate(-18.293 652.241 451.714)" fill="#D9D9D9"/>
<rect x="656.337" y="464.105" width="215.719" height="3.83843" transform="rotate(-18.293 656.337 464.105)" fill="#D9D9D9"/>
<rect x="660.433" y="476.496" width="215.719" height="3.83843" transform="rotate(-18.293 660.433 476.496)" fill="#D9D9D9"/>
<rect x="664.53" y="488.887" width="215.719" height="3.83843" transform="rotate(-18.293 664.53 488.887)" fill="#D9D9D9"/>
<rect x="668.626" y="501.278" width="215.719" height="3.83843" transform="rotate(-18.293 668.626 501.278)" fill="#D9D9D9"/>
<rect x="672.722" y="513.669" width="215.719" height="3.83843" transform="rotate(-18.293 672.722 513.669)" fill="#D9D9D9"/>
<rect x="676.818" y="526.061" width="215.719" height="3.83843" transform="rotate(-18.293 676.818 526.061)" fill="#D9D9D9"/>
<rect x="680.915" y="538.452" width="215.719" height="3.83843" transform="rotate(-18.293 680.915 538.452)" fill="#D9D9D9"/>
<rect x="685.011" y="550.843" width="215.719" height="3.83843" transform="rotate(-18.293 685.011 550.843)" fill="#D9D9D9"/>
<rect x="689.107" y="563.234" width="215.719" height="3.83843" transform="rotate(-18.293 689.107 563.234)" fill="#D9D9D9"/>
<rect x="693.204" y="575.625" width="215.719" height="3.83843" transform="rotate(-18.293 693.204 575.625)" fill="#D9D9D9"/>
<rect x="697.3" y="588.016" width="215.719" height="3.83843" transform="rotate(-18.293 697.3 588.016)" fill="#D9D9D9"/>
<rect x="701.396" y="600.407" width="215.719" height="3.83843" transform="rotate(-18.293 701.396 600.407)" fill="#D9D9D9"/>
</g>
<path d="M537.177 483.933C435.765 445.857 405.637 476.915 372.705 483.102C369.873 483.634 368.262 486.896 369.669 489.41C477.698 682.484 636.337 575.032 673.465 506.505C696.281 464.393 695.406 400.963 671.361 359.074C669.304 355.489 664.067 357.506 664.22 361.636C666.622 426.366 623.347 516.286 537.177 483.933Z" fill="#861D1D"/>
<circle cx="524.894" cy="438.346" r="164.254" stroke="#231F20" stroke-width="30"/>
<circle cx="1.91921" cy="1.91921" r="1.91921" transform="matrix(-1 0 0 1 427.782 349.678)" fill="#861D1D"/>
<circle cx="1.91921" cy="1.91921" r="1.91921" transform="matrix(-1 0 0 1 427.782 358.891)" fill="#861D1D"/>
<circle cx="1.91921" cy="1.91921" r="1.91921" transform="matrix(-1 0 0 1 427.782 368.103)" fill="#861D1D"/>
<circle cx="1.91921" cy="1.91921" r="1.91921" transform="matrix(-1 0 0 1 427.782 377.315)" fill="#861D1D"/>
<circle cx="1.91921" cy="1.91921" r="1.91921" transform="matrix(-1 0 0 1 440.832 349.678)" fill="#861D1D"/>
<circle cx="1.91921" cy="1.91921" r="1.91921" transform="matrix(-1 0 0 1 440.832 358.891)" fill="#861D1D"/>
<circle cx="1.91921" cy="1.91921" r="1.91921" transform="matrix(-1 0 0 1 440.832 368.103)" fill="#861D1D"/>
<circle cx="1.91921" cy="1.91921" r="1.91921" transform="matrix(-1 0 0 1 440.832 377.315)" fill="#861D1D"/>
<circle cx="1.91921" cy="1.91921" r="1.91921" transform="matrix(-1 0 0 1 453.883 349.678)" fill="#861D1D"/>
<circle cx="1.91921" cy="1.91921" r="1.91921" transform="matrix(-1 0 0 1 453.883 358.891)" fill="#861D1D"/>
<circle cx="1.91921" cy="1.91921" r="1.91921" transform="matrix(-1 0 0 1 453.883 368.103)" fill="#861D1D"/>
<circle cx="1.91921" cy="1.91921" r="1.91921" transform="matrix(-1 0 0 1 453.883 377.315)" fill="#861D1D"/>
<circle cx="1.91921" cy="1.91921" r="1.91921" transform="matrix(-1 0 0 1 466.933 349.678)" fill="#861D1D"/>
<circle cx="1.91921" cy="1.91921" r="1.91921" transform="matrix(-1 0 0 1 466.933 358.891)" fill="#861D1D"/>
<circle cx="1.91921" cy="1.91921" r="1.91921" transform="matrix(-1 0 0 1 466.933 368.103)" fill="#861D1D"/>
<circle cx="1.91921" cy="1.91921" r="1.91921" transform="matrix(-1 0 0 1 466.933 377.315)" fill="#861D1D"/>
<defs>
<filter id="filter0_f_163_238" x="104.271" y="104.591" width="774.493" height="768.807" filterUnits="userSpaceOnUse" color-interpolation-filters="sRGB">
<feFlood flood-opacity="0" result="BackgroundImageFix"/>
<feBlend mode="normal" in="SourceGraphic" in2="BackgroundImageFix" result="shape"/>
<feGaussianBlur stdDeviation="16.9" result="effect1_foregroundBlur_163_238"/>
</filter>
<linearGradient id="paint0_linear_163_238" x1="1006.67" y1="781.54" x2="240.476" y2="279.985" gradientUnits="userSpaceOnUse">
<stop stop-color="#DFA43A"/>
<stop offset="1" stop-color="#DFA43A" stop-opacity="0"/>
</linearGradient>
</defs>
</svg>
