<svg width="1068" height="1041" viewBox="0 0 1068 1041" fill="none" xmlns="http://www.w3.org/2000/svg">
<g opacity="0.78" filter="url(#filter0_f_164_850)">
<ellipse cx="536.99" cy="499.809" rx="408.24" ry="398.855" transform="rotate(115.738 536.99 499.809)" fill="url(#paint0_linear_164_850)" fill-opacity="0.5"/>
</g>
<g opacity="0.4">
<g opacity="0.3">
<rect x="137.404" y="254.828" width="2.30306" height="28.4043" transform="rotate(90 137.404 254.828)" fill="#1E1E1E"/>
<rect x="128.576" y="274.404" width="2.30306" height="28.4043" transform="rotate(-180 128.576 274.404)" fill="#1E1E1E"/>
</g>
<g opacity="0.3">
<rect x="137.404" y="297.819" width="2.30306" height="28.4043" transform="rotate(90 137.404 297.819)" fill="#1E1E1E"/>
<rect x="128.576" y="317.395" width="2.30306" height="28.4043" transform="rotate(-180 128.576 317.395)" fill="#1E1E1E"/>
</g>
<g opacity="0.3">
<rect x="137.404" y="340.809" width="2.30306" height="28.4043" transform="rotate(90 137.404 340.809)" fill="#1E1E1E"/>
<rect x="128.576" y="360.385" width="2.30306" height="28.4043" transform="rotate(-180 128.576 360.385)" fill="#1E1E1E"/>
</g>
<g opacity="0.3">
<rect x="137.404" y="383.799" width="2.30306" height="28.4043" transform="rotate(90 137.404 383.799)" fill="#1E1E1E"/>
<rect x="128.576" y="403.375" width="2.30306" height="28.4043" transform="rotate(-180 128.576 403.375)" fill="#1E1E1E"/>
</g>
<g opacity="0.3">
<rect x="137.404" y="426.79" width="2.30306" height="28.4043" transform="rotate(90 137.404 426.79)" fill="#1E1E1E"/>
<rect x="128.576" y="446.366" width="2.30306" height="28.4043" transform="rotate(-180 128.576 446.366)" fill="#1E1E1E"/>
</g>
<g opacity="0.3">
<rect x="224.92" y="254.828" width="2.30306" height="28.4043" transform="rotate(90 224.92 254.828)" fill="#1E1E1E"/>
<rect x="216.092" y="274.404" width="2.30306" height="28.4043" transform="rotate(-180 216.092 274.404)" fill="#1E1E1E"/>
</g>
<g opacity="0.3">
<rect x="224.92" y="297.819" width="2.30306" height="28.4043" transform="rotate(90 224.92 297.819)" fill="#1E1E1E"/>
<rect x="216.092" y="317.395" width="2.30306" height="28.4043" transform="rotate(-180 216.092 317.395)" fill="#1E1E1E"/>
</g>
<g opacity="0.3">
<rect x="224.92" y="340.809" width="2.30306" height="28.4043" transform="rotate(90 224.92 340.809)" fill="#1E1E1E"/>
<rect x="216.092" y="360.385" width="2.30306" height="28.4043" transform="rotate(-180 216.092 360.385)" fill="#1E1E1E"/>
</g>
<g opacity="0.3">
<rect x="224.92" y="383.799" width="2.30306" height="28.4043" transform="rotate(90 224.92 383.799)" fill="#1E1E1E"/>
<rect x="216.092" y="403.375" width="2.30306" height="28.4043" transform="rotate(-180 216.092 403.375)" fill="#1E1E1E"/>
</g>
<g opacity="0.3">
<rect x="224.92" y="426.79" width="2.30306" height="28.4043" transform="rotate(90 224.92 426.79)" fill="#1E1E1E"/>
<rect x="216.092" y="446.366" width="2.30306" height="28.4043" transform="rotate(-180 216.092 446.366)" fill="#1E1E1E"/>
</g>
<g opacity="0.3">
<rect x="181.163" y="254.828" width="2.30306" height="28.4043" transform="rotate(90 181.163 254.828)" fill="#1E1E1E"/>
<rect x="172.334" y="274.404" width="2.30306" height="28.4043" transform="rotate(-180 172.334 274.404)" fill="#1E1E1E"/>
</g>
<g opacity="0.3">
<rect x="181.163" y="297.819" width="2.30306" height="28.4043" transform="rotate(90 181.163 297.819)" fill="#1E1E1E"/>
<rect x="172.334" y="317.395" width="2.30306" height="28.4043" transform="rotate(-180 172.334 317.395)" fill="#1E1E1E"/>
</g>
<g opacity="0.3">
<rect x="181.163" y="340.809" width="2.30306" height="28.4043" transform="rotate(90 181.163 340.809)" fill="#1E1E1E"/>
<rect x="172.334" y="360.385" width="2.30306" height="28.4043" transform="rotate(-180 172.334 360.385)" fill="#1E1E1E"/>
</g>
<g opacity="0.3">
<rect x="181.163" y="383.799" width="2.30306" height="28.4043" transform="rotate(90 181.163 383.799)" fill="#1E1E1E"/>
<rect x="172.334" y="403.375" width="2.30306" height="28.4043" transform="rotate(-180 172.334 403.375)" fill="#1E1E1E"/>
</g>
<g opacity="0.3">
<rect x="181.163" y="426.79" width="2.30306" height="28.4043" transform="rotate(90 181.163 426.79)" fill="#1E1E1E"/>
<rect x="172.334" y="446.366" width="2.30306" height="28.4043" transform="rotate(-180 172.334 446.366)" fill="#1E1E1E"/>
</g>
<g opacity="0.3">
<rect x="268.678" y="254.828" width="2.30306" height="28.4043" transform="rotate(90 268.678 254.828)" fill="#1E1E1E"/>
<rect x="259.85" y="274.404" width="2.30306" height="28.4043" transform="rotate(-180 259.85 274.404)" fill="#1E1E1E"/>
</g>
<g opacity="0.3">
<rect x="268.678" y="297.819" width="2.30306" height="28.4043" transform="rotate(90 268.678 297.819)" fill="#1E1E1E"/>
<rect x="259.85" y="317.395" width="2.30306" height="28.4043" transform="rotate(-180 259.85 317.395)" fill="#1E1E1E"/>
</g>
<g opacity="0.3">
<rect x="268.678" y="340.809" width="2.30306" height="28.4043" transform="rotate(90 268.678 340.809)" fill="#1E1E1E"/>
<rect x="259.85" y="360.385" width="2.30306" height="28.4043" transform="rotate(-180 259.85 360.385)" fill="#1E1E1E"/>
</g>
<g opacity="0.3">
<rect x="268.678" y="383.799" width="2.30306" height="28.4043" transform="rotate(90 268.678 383.799)" fill="#1E1E1E"/>
<rect x="259.85" y="403.375" width="2.30306" height="28.4043" transform="rotate(-180 259.85 403.375)" fill="#1E1E1E"/>
</g>
<g opacity="0.3">
<rect x="268.678" y="426.79" width="2.30306" height="28.4043" transform="rotate(90 268.678 426.79)" fill="#1E1E1E"/>
<rect x="259.85" y="446.366" width="2.30306" height="28.4043" transform="rotate(-180 259.85 446.366)" fill="#1E1E1E"/>
</g>
<g opacity="0.3">
<rect x="137.404" y="475.922" width="2.30306" height="28.4043" transform="rotate(90 137.404 475.922)" fill="#1E1E1E"/>
<rect x="128.576" y="495.498" width="2.30306" height="28.4043" transform="rotate(-180 128.576 495.498)" fill="#1E1E1E"/>
</g>
<g opacity="0.3">
<rect x="137.404" y="518.912" width="2.30306" height="28.4043" transform="rotate(90 137.404 518.912)" fill="#1E1E1E"/>
<rect x="128.576" y="538.488" width="2.30306" height="28.4043" transform="rotate(-180 128.576 538.488)" fill="#1E1E1E"/>
</g>
<g opacity="0.3">
<rect x="137.404" y="561.902" width="2.30306" height="28.4043" transform="rotate(90 137.404 561.902)" fill="#1E1E1E"/>
<rect x="128.576" y="581.479" width="2.30306" height="28.4043" transform="rotate(-180 128.576 581.479)" fill="#1E1E1E"/>
</g>
<g opacity="0.3">
<rect x="137.404" y="604.893" width="2.30306" height="28.4043" transform="rotate(90 137.404 604.893)" fill="#1E1E1E"/>
<rect x="128.576" y="624.469" width="2.30306" height="28.4043" transform="rotate(-180 128.576 624.469)" fill="#1E1E1E"/>
</g>
<g opacity="0.3">
<rect x="137.404" y="647.883" width="2.30306" height="28.4043" transform="rotate(90 137.404 647.883)" fill="#1E1E1E"/>
<rect x="128.576" y="667.459" width="2.30306" height="28.4043" transform="rotate(-180 128.576 667.459)" fill="#1E1E1E"/>
</g>
<g opacity="0.3">
<rect x="224.92" y="475.922" width="2.30306" height="28.4043" transform="rotate(90 224.92 475.922)" fill="#1E1E1E"/>
<rect x="216.092" y="495.498" width="2.30306" height="28.4043" transform="rotate(-180 216.092 495.498)" fill="#1E1E1E"/>
</g>
<g opacity="0.3">
<rect x="224.92" y="518.912" width="2.30306" height="28.4043" transform="rotate(90 224.92 518.912)" fill="#1E1E1E"/>
<rect x="216.092" y="538.488" width="2.30306" height="28.4043" transform="rotate(-180 216.092 538.488)" fill="#1E1E1E"/>
</g>
<g opacity="0.3">
<rect x="224.92" y="561.902" width="2.30306" height="28.4043" transform="rotate(90 224.92 561.902)" fill="#1E1E1E"/>
<rect x="216.092" y="581.479" width="2.30306" height="28.4043" transform="rotate(-180 216.092 581.479)" fill="#1E1E1E"/>
</g>
<g opacity="0.3">
<rect x="224.92" y="604.893" width="2.30306" height="28.4043" transform="rotate(90 224.92 604.893)" fill="#1E1E1E"/>
<rect x="216.092" y="624.469" width="2.30306" height="28.4043" transform="rotate(-180 216.092 624.469)" fill="#1E1E1E"/>
</g>
<g opacity="0.3">
<rect x="224.92" y="647.883" width="2.30306" height="28.4043" transform="rotate(90 224.92 647.883)" fill="#1E1E1E"/>
<rect x="216.092" y="667.459" width="2.30306" height="28.4043" transform="rotate(-180 216.092 667.459)" fill="#1E1E1E"/>
</g>
<g opacity="0.3">
<rect x="181.163" y="475.922" width="2.30306" height="28.4043" transform="rotate(90 181.163 475.922)" fill="#1E1E1E"/>
<rect x="172.334" y="495.498" width="2.30306" height="28.4043" transform="rotate(-180 172.334 495.498)" fill="#1E1E1E"/>
</g>
<g opacity="0.3">
<rect x="181.163" y="518.912" width="2.30306" height="28.4043" transform="rotate(90 181.163 518.912)" fill="#1E1E1E"/>
<rect x="172.334" y="538.488" width="2.30306" height="28.4043" transform="rotate(-180 172.334 538.488)" fill="#1E1E1E"/>
</g>
<g opacity="0.3">
<rect x="181.163" y="561.902" width="2.30306" height="28.4043" transform="rotate(90 181.163 561.902)" fill="#1E1E1E"/>
<rect x="172.334" y="581.479" width="2.30306" height="28.4043" transform="rotate(-180 172.334 581.479)" fill="#1E1E1E"/>
</g>
<g opacity="0.3">
<rect x="181.163" y="604.893" width="2.30306" height="28.4043" transform="rotate(90 181.163 604.893)" fill="#1E1E1E"/>
<rect x="172.334" y="624.469" width="2.30306" height="28.4043" transform="rotate(-180 172.334 624.469)" fill="#1E1E1E"/>
</g>
<g opacity="0.3">
<rect x="181.163" y="647.883" width="2.30306" height="28.4043" transform="rotate(90 181.163 647.883)" fill="#1E1E1E"/>
<rect x="172.334" y="667.459" width="2.30306" height="28.4043" transform="rotate(-180 172.334 667.459)" fill="#1E1E1E"/>
</g>
<g opacity="0.3">
<rect x="268.678" y="475.922" width="2.30306" height="28.4043" transform="rotate(90 268.678 475.922)" fill="#1E1E1E"/>
<rect x="259.85" y="495.498" width="2.30306" height="28.4043" transform="rotate(-180 259.85 495.498)" fill="#1E1E1E"/>
</g>
<g opacity="0.3">
<rect x="268.678" y="518.912" width="2.30306" height="28.4043" transform="rotate(90 268.678 518.912)" fill="#1E1E1E"/>
<rect x="259.85" y="538.488" width="2.30306" height="28.4043" transform="rotate(-180 259.85 538.488)" fill="#1E1E1E"/>
</g>
<g opacity="0.3">
<rect x="268.678" y="561.902" width="2.30306" height="28.4043" transform="rotate(90 268.678 561.902)" fill="#1E1E1E"/>
<rect x="259.85" y="581.479" width="2.30306" height="28.4043" transform="rotate(-180 259.85 581.479)" fill="#1E1E1E"/>
</g>
<g opacity="0.3">
<rect x="268.678" y="604.893" width="2.30306" height="28.4043" transform="rotate(90 268.678 604.893)" fill="#1E1E1E"/>
<rect x="259.85" y="624.469" width="2.30306" height="28.4043" transform="rotate(-180 259.85 624.469)" fill="#1E1E1E"/>
</g>
<g opacity="0.3">
<rect x="268.678" y="647.883" width="2.30306" height="28.4043" transform="rotate(90 268.678 647.883)" fill="#1E1E1E"/>
<rect x="259.85" y="667.459" width="2.30306" height="28.4043" transform="rotate(-180 259.85 667.459)" fill="#1E1E1E"/>
</g>
</g>
<rect x="607.995" y="362.87" width="306.306" height="366.953" rx="15" transform="rotate(-18.293 607.995 362.87)" fill="#F0F0F0"/>
<rect x="629.796" y="382.345" width="277.134" height="5.3738" transform="rotate(-18.293 629.796 382.345)" fill="#D9D9D9"/>
<rect x="634.375" y="396.194" width="277.134" height="3.83843" transform="rotate(-18.293 634.375 396.194)" fill="#D9D9D9"/>
<rect x="638.47" y="408.585" width="277.134" height="3.83843" transform="rotate(-18.293 638.47 408.585)" fill="#D9D9D9"/>
<rect x="642.567" y="420.976" width="277.134" height="3.83843" transform="rotate(-18.293 642.567 420.976)" fill="#D9D9D9"/>
<rect x="646.663" y="433.367" width="277.134" height="3.83843" transform="rotate(-18.293 646.663 433.367)" fill="#D9D9D9"/>
<rect x="650.759" y="445.758" width="277.134" height="3.83843" transform="rotate(-18.293 650.759 445.758)" fill="#D9D9D9"/>
<rect x="654.856" y="458.149" width="277.134" height="3.83843" transform="rotate(-18.293 654.856 458.149)" fill="#D9D9D9"/>
<rect x="663.048" y="482.932" width="215.719" height="3.83843" transform="rotate(-18.293 663.048 482.932)" fill="#D9D9D9"/>
<rect x="667.145" y="495.323" width="215.719" height="3.83843" transform="rotate(-18.293 667.145 495.323)" fill="#D9D9D9"/>
<rect x="671.241" y="507.714" width="215.719" height="3.83843" transform="rotate(-18.293 671.241 507.714)" fill="#D9D9D9"/>
<rect x="675.337" y="520.105" width="215.719" height="3.83843" transform="rotate(-18.293 675.337 520.105)" fill="#D9D9D9"/>
<rect x="679.433" y="532.496" width="215.719" height="3.83843" transform="rotate(-18.293 679.433 532.496)" fill="#D9D9D9"/>
<rect x="683.53" y="544.887" width="215.719" height="3.83843" transform="rotate(-18.293 683.53 544.887)" fill="#D9D9D9"/>
<rect x="687.626" y="557.278" width="215.719" height="3.83843" transform="rotate(-18.293 687.626 557.278)" fill="#D9D9D9"/>
<rect x="691.722" y="569.669" width="215.719" height="3.83843" transform="rotate(-18.293 691.722 569.669)" fill="#D9D9D9"/>
<rect x="695.818" y="582.061" width="215.719" height="3.83843" transform="rotate(-18.293 695.818 582.061)" fill="#D9D9D9"/>
<rect x="699.915" y="594.452" width="215.719" height="3.83843" transform="rotate(-18.293 699.915 594.452)" fill="#D9D9D9"/>
<rect x="704.011" y="606.843" width="215.719" height="3.83843" transform="rotate(-18.293 704.011 606.843)" fill="#D9D9D9"/>
<rect x="708.107" y="619.234" width="215.719" height="3.83843" transform="rotate(-18.293 708.107 619.234)" fill="#D9D9D9"/>
<rect x="712.204" y="631.625" width="215.719" height="3.83843" transform="rotate(-18.293 712.204 631.625)" fill="#D9D9D9"/>
<rect x="716.301" y="644.017" width="215.719" height="3.83843" transform="rotate(-18.293 716.301 644.017)" fill="#D9D9D9"/>
<rect x="720.396" y="656.407" width="215.719" height="3.83843" transform="rotate(-18.293 720.396 656.407)" fill="#D9D9D9"/>
<rect x="724.493" y="668.799" width="215.719" height="3.83843" transform="rotate(-18.293 724.493 668.799)" fill="#D9D9D9"/>
<rect x="728.589" y="681.19" width="215.719" height="3.83843" transform="rotate(-18.293 728.589 681.19)" fill="#D9D9D9"/>
<circle cx="543.894" cy="494.346" r="164.254" fill="#F7F7F7" stroke="#231F20" stroke-width="30"/>
<path d="M288.882 787.288C277.724 778.161 276.077 761.716 285.205 750.559L411.581 596.064L451.987 629.117L325.611 783.611C316.484 794.769 300.039 796.415 288.882 787.288V787.288Z" fill="#231F20"/>
<mask id="mask0_164_850" style="mask-type:alpha" maskUnits="userSpaceOnUse" x="364" y="315" width="360" height="359">
<circle cx="543.894" cy="494.346" r="179.254" fill="#F7F7F7"/>
</mask>
<g mask="url(#mask0_164_850)">
<rect x="607.995" y="362.87" width="306.306" height="366.953" rx="15" transform="rotate(-18.293 607.995 362.87)" fill="#F3F3F3"/>
<rect x="629.796" y="382.345" width="277.134" height="5.3738" transform="rotate(-18.293 629.796 382.345)" fill="#D9D9D9"/>
<rect x="634.375" y="396.194" width="277.134" height="3.83843" transform="rotate(-18.293 634.375 396.194)" fill="#D9D9D9"/>
<rect x="638.47" y="408.585" width="277.134" height="3.83843" transform="rotate(-18.293 638.47 408.585)" fill="#D9D9D9"/>
<rect x="642.567" y="420.976" width="277.134" height="3.83843" transform="rotate(-18.293 642.567 420.976)" fill="#D9D9D9"/>
<rect x="646.663" y="433.367" width="277.134" height="3.83843" transform="rotate(-18.293 646.663 433.367)" fill="#D9D9D9"/>
<rect x="650.759" y="445.758" width="277.134" height="3.83843" transform="rotate(-18.293 650.759 445.758)" fill="#D9D9D9"/>
<rect x="654.856" y="458.149" width="277.134" height="3.83843" transform="rotate(-18.293 654.856 458.149)" fill="#D9D9D9"/>
<rect x="663.048" y="482.932" width="215.719" height="3.83843" transform="rotate(-18.293 663.048 482.932)" fill="#D9D9D9"/>
<rect x="667.145" y="495.323" width="215.719" height="3.83843" transform="rotate(-18.293 667.145 495.323)" fill="#D9D9D9"/>
<rect x="671.241" y="507.714" width="215.719" height="3.83843" transform="rotate(-18.293 671.241 507.714)" fill="#D9D9D9"/>
<rect x="675.337" y="520.105" width="215.719" height="3.83843" transform="rotate(-18.293 675.337 520.105)" fill="#D9D9D9"/>
<rect x="679.433" y="532.496" width="215.719" height="3.83843" transform="rotate(-18.293 679.433 532.496)" fill="#D9D9D9"/>
<rect x="683.53" y="544.887" width="215.719" height="3.83843" transform="rotate(-18.293 683.53 544.887)" fill="#D9D9D9"/>
<rect x="687.626" y="557.278" width="215.719" height="3.83843" transform="rotate(-18.293 687.626 557.278)" fill="#D9D9D9"/>
<rect x="691.722" y="569.669" width="215.719" height="3.83843" transform="rotate(-18.293 691.722 569.669)" fill="#D9D9D9"/>
<rect x="695.818" y="582.061" width="215.719" height="3.83843" transform="rotate(-18.293 695.818 582.061)" fill="#D9D9D9"/>
<rect x="699.915" y="594.452" width="215.719" height="3.83843" transform="rotate(-18.293 699.915 594.452)" fill="#D9D9D9"/>
<rect x="704.011" y="606.843" width="215.719" height="3.83843" transform="rotate(-18.293 704.011 606.843)" fill="#D9D9D9"/>
<rect x="708.107" y="619.234" width="215.719" height="3.83843" transform="rotate(-18.293 708.107 619.234)" fill="#D9D9D9"/>
<rect x="712.204" y="631.625" width="215.719" height="3.83843" transform="rotate(-18.293 712.204 631.625)" fill="#D9D9D9"/>
<rect x="716.301" y="644.017" width="215.719" height="3.83843" transform="rotate(-18.293 716.301 644.017)" fill="#D9D9D9"/>
<rect x="720.396" y="656.407" width="215.719" height="3.83843" transform="rotate(-18.293 720.396 656.407)" fill="#D9D9D9"/>
</g>
<path d="M556.177 539.933C454.765 501.857 424.637 532.916 391.705 539.102C388.873 539.634 387.262 542.896 388.669 545.41C496.698 738.485 655.337 631.033 692.465 562.506C715.281 520.394 714.406 456.963 690.361 415.074C688.304 411.49 683.067 413.506 683.22 417.636C685.622 482.366 642.347 572.286 556.177 539.933Z" fill="#861D1D"/>
<circle cx="543.894" cy="494.346" r="164.254" stroke="#231F20" stroke-width="30"/>
<circle cx="1.91921" cy="1.91921" r="1.91921" transform="matrix(-1 0 0 1 446.782 405.679)" fill="#861D1D"/>
<circle cx="1.91921" cy="1.91921" r="1.91921" transform="matrix(-1 0 0 1 446.782 414.891)" fill="#861D1D"/>
<circle cx="1.91921" cy="1.91921" r="1.91921" transform="matrix(-1 0 0 1 446.782 424.103)" fill="#861D1D"/>
<circle cx="1.91921" cy="1.91921" r="1.91921" transform="matrix(-1 0 0 1 446.782 433.315)" fill="#861D1D"/>
<circle cx="1.91921" cy="1.91921" r="1.91921" transform="matrix(-1 0 0 1 459.832 405.679)" fill="#861D1D"/>
<circle cx="1.91921" cy="1.91921" r="1.91921" transform="matrix(-1 0 0 1 459.832 414.891)" fill="#861D1D"/>
<circle cx="1.91921" cy="1.91921" r="1.91921" transform="matrix(-1 0 0 1 459.832 424.103)" fill="#861D1D"/>
<circle cx="1.91921" cy="1.91921" r="1.91921" transform="matrix(-1 0 0 1 459.832 433.315)" fill="#861D1D"/>
<circle cx="1.91921" cy="1.91921" r="1.91921" transform="matrix(-1 0 0 1 472.883 405.679)" fill="#861D1D"/>
<circle cx="1.91921" cy="1.91921" r="1.91921" transform="matrix(-1 0 0 1 472.883 414.891)" fill="#861D1D"/>
<circle cx="1.91921" cy="1.91921" r="1.91921" transform="matrix(-1 0 0 1 472.883 424.103)" fill="#861D1D"/>
<circle cx="1.91921" cy="1.91921" r="1.91921" transform="matrix(-1 0 0 1 472.883 433.315)" fill="#861D1D"/>
<circle cx="1.91921" cy="1.91921" r="1.91921" transform="matrix(-1 0 0 1 485.933 405.679)" fill="#861D1D"/>
<circle cx="1.91921" cy="1.91921" r="1.91921" transform="matrix(-1 0 0 1 485.933 414.891)" fill="#861D1D"/>
<circle cx="1.91921" cy="1.91921" r="1.91921" transform="matrix(-1 0 0 1 485.933 424.103)" fill="#861D1D"/>
<circle cx="1.91921" cy="1.91921" r="1.91921" transform="matrix(-1 0 0 1 485.933 433.315)" fill="#861D1D"/>
<defs>
<filter id="filter0_f_164_850" x="102.459" y="59.4261" width="869.062" height="880.765" filterUnits="userSpaceOnUse" color-interpolation-filters="sRGB">
<feFlood flood-opacity="0" result="BackgroundImageFix"/>
<feBlend mode="normal" in="SourceGraphic" in2="BackgroundImageFix" result="shape"/>
<feGaussianBlur stdDeviation="16.9" result="effect1_foregroundBlur_164_850"/>
</filter>
<linearGradient id="paint0_linear_164_850" x1="1127.63" y1="835.221" x2="249.164" y2="260.173" gradientUnits="userSpaceOnUse">
<stop stop-color="#DFA43A"/>
<stop offset="1" stop-color="#DFA43A" stop-opacity="0"/>
</linearGradient>
</defs>
</svg>
