<svg width="32" height="32" viewBox="0 0 32 32" fill="none" xmlns="http://www.w3.org/2000/svg">
<path fill-rule="evenodd" clip-rule="evenodd" d="M24.75 0H6.75C3.02208 0 0 3.02208 0 6.75V24.75C0 28.4779 3.02208 31.5 6.75 31.5H24.75C28.4779 31.5 31.5 28.4779 31.5 24.75V6.75C31.5 3.02208 28.4779 0 24.75 0ZM21.9375 11.25C22.8694 11.25 23.625 10.4944 23.625 9.5625C23.625 8.63052 22.8694 7.875 21.9375 7.875C21.0056 7.875 20.25 8.63052 20.25 9.5625C20.25 10.4944 21.0056 11.25 21.9375 11.25ZM15.75 21.375C18.8566 21.375 21.375 18.8566 21.375 15.75C21.375 12.6434 18.8566 10.125 15.75 10.125C12.6434 10.125 10.125 12.6434 10.125 15.75C10.125 18.8566 12.6434 21.375 15.75 21.375ZM15.75 19.125C17.614 19.125 19.125 17.614 19.125 15.75C19.125 13.886 17.614 12.375 15.75 12.375C13.886 12.375 12.375 13.886 12.375 15.75C12.375 17.614 13.886 19.125 15.75 19.125ZM5.23571 8.18557C4.5 9.62944 4.5 11.5197 4.5 15.3V16.2C4.5 19.9803 4.5 21.8706 5.23571 23.3144C5.88285 24.5845 6.91546 25.6172 8.18557 26.2643C9.62944 27 11.5197 27 15.3 27H16.2C19.9803 27 21.8706 27 23.3144 26.2643C24.5845 25.6172 25.6172 24.5845 26.2643 23.3144C27 21.8706 27 19.9803 27 16.2V15.3C27 11.5197 27 9.62944 26.2643 8.18557C25.6172 6.91546 24.5845 5.88285 23.3144 5.23571C21.8706 4.5 19.9803 4.5 16.2 4.5H15.3C11.5197 4.5 9.62944 4.5 8.18557 5.23571C6.91546 5.88285 5.88285 6.91546 5.23571 8.18557ZM16.2 6.75H15.3C13.3727 6.75 12.0626 6.75175 11.0499 6.83449C10.0633 6.91508 9.5589 7.06116 9.207 7.24047C8.36031 7.6719 7.6719 8.36031 7.24047 9.207C7.06116 9.5589 6.91508 10.0633 6.83449 11.0499C6.75175 12.0626 6.75 13.3727 6.75 15.3V16.2C6.75 18.1273 6.75175 19.4374 6.83449 20.4501C6.91508 21.4367 7.06116 21.9411 7.24047 22.293C7.6719 23.1397 8.36031 23.8281 9.207 24.2595C9.5589 24.4388 10.0633 24.585 11.0499 24.6655C12.0626 24.7482 13.3727 24.75 15.3 24.75H16.2C18.1273 24.75 19.4374 24.7482 20.4501 24.6655C21.4367 24.585 21.9411 24.4388 22.293 24.2595C23.1397 23.8281 23.8281 23.1397 24.2595 22.293C24.4388 21.9411 24.585 21.4367 24.6655 20.4501C24.7482 19.4374 24.75 18.1273 24.75 16.2V15.3C24.75 13.3727 24.7482 12.0626 24.6655 11.0499C24.585 10.0633 24.4388 9.5589 24.2595 9.207C23.8281 8.36031 23.1397 7.6719 22.293 7.24047C21.9411 7.06116 21.4367 6.91508 20.4501 6.83449C19.4374 6.75175 18.1273 6.75 16.2 6.75Z" fill="white"/>
</svg>
