<svg width="48" height="34" viewBox="0 0 48 34" fill="none" xmlns="http://www.w3.org/2000/svg">
<path fill-rule="evenodd" clip-rule="evenodd" d="M19.1723 23.0067V9.53832C23.9535 11.7882 27.6566 13.9615 32.0363 16.3047C28.424 18.308 23.9535 20.5558 19.1723 23.0067ZM45.8184 2.83988C44.9936 1.75326 43.588 0.907413 42.0914 0.627381C37.6926 -0.207939 10.2504 -0.210315 5.85397 0.627381C4.65386 0.852357 3.58521 1.39616 2.6672 2.24105C-1.20087 5.83121 0.0111988 25.0841 0.943553 28.2028C1.33562 29.5527 1.84246 30.5262 2.48076 31.1653C3.30314 32.0101 4.42912 32.5919 5.72246 32.8528C9.34429 33.6019 28.0033 34.0208 42.0149 32.9653C43.3058 32.7403 44.4485 32.1398 45.3498 31.259C48.9262 27.6832 48.6824 7.34912 45.8184 2.83988Z" fill="white"/>
</svg>
